<svg xmlns="http://www.w3.org/2000/svg" viewBox="0 0 582.65 717.12"><defs><style>.cls-1{fill:#030202;}.cls-2{fill:#e1001a;}</style></defs><g id="Calque_2" data-name="Calque 2"><g id="Calque_1-2" data-name="Calque 1"><path class="cls-1" d="M272,575.06c-45.21,1.29-87.47-9.29-126.52-32.07-43.39-25.32-75.72-60.49-93.56-107.93-12.8-34-15.54-69.16-7.77-104.62,6.85-31.27,21-59.8,36.51-87.59,13.41-24,29.87-45.67,51.28-63.27,22.69-18.66,48.65-30.47,77.67-33.73,29.25-3.29,58.73-5.84,88.13-6.17,36.2-.41,70.21,10.57,102.52,26.39C444,187.48,481,217,507.34,258.5c22.7,35.74,31.38,74.65,26.48,116.85-6.25,53.86-32.7,96.43-72.71,131.27-38.64,33.64-83.77,54.58-134,63.89-18.07,3.36-36.65,4-55,5.93ZM76.25,359.83a142.32,142.32,0,0,0,10.54,52.71,191.33,191.33,0,0,0,35.38,55.88,173.39,173.39,0,0,0,45.33,36.42,230.28,230.28,0,0,0,36,15.92,196.53,196.53,0,0,0,35.67,8.47c15.51,2.23,31.13,5.38,47,1.86,16.2-3.61,32.63-6.31,48.64-10.61a501.57,501.57,0,0,0,49.07-15.82c22.22-8.51,43-19.94,60.72-36.1,12.84-11.69,23.75-24.94,31.63-40.65a171.34,171.34,0,0,0,13.67-38c2.64-11.22,4.56-22.42,4.26-33.88-.38-15-3.92-29.39-8.94-43.44A177,177,0,0,0,458,263.1a196.17,196.17,0,0,0-49.83-45.24,225.6,225.6,0,0,0-48-22.92,233.34,233.34,0,0,0-33.46-8.61c-13.14-2.44-26.45-4.52-39.77-5.18a190.62,190.62,0,0,0-36.28,1.73c-13.33,1.91-26.78,4.51-39.49,8.84a212.23,212.23,0,0,0-61,32.48,208.23,208.23,0,0,0-48.31,51.55,155.44,155.44,0,0,0-22.2,52.47C77.44,338.52,77.32,349.28,76.25,359.83Z"/><path class="cls-1" d="M309.3,57.7c-42-1.15-75.52-1.42-109-3.17-35.42-1.86-70.78-4.84-106.12-7.88-24.37-2.1-48.67-5.15-73-7.73C6.86,37.39-4.18,14.79,3.91,2.93A8.22,8.22,0,0,1,10.18,0C21.46.78,32.74,1.77,44,3.24c22.93,3,45.77,6.72,68.73,9.48Q148.38,17,184.23,20a1410.36,1410.36,0,0,0,143.33,4.15c45.5-.89,91-2.75,136.12-8.46,29.51-3.73,58.8-9.27,88.21-13.86,1.66-.26,3.6.45,5.24,1.12,4.15,1.66,8.31,3.38,12.28,5.43,3.52,1.81,7.18,3.65,10.07,6.27,4.84,4.37,4,9.72-1.63,12.78-14.54,7.88-30.41,11.9-46.54,14.12-29.16,4-58.38,8.23-87.71,10.13C396.07,54.75,348.43,56,309.3,57.7Z"/><path class="cls-1" d="M270.3,658.58c16.8,1,46.71,2.8,76.6,4.82,18.61,1.25,37.19,2.8,55.77,4.41q50.5,4.37,101,9c15.08,1.37,30.14,3,45.23,4.32,13.48,1.23,24.68,14.8,23.24,28.33-.45,4.26-4.7,7.84-10.15,7.7-8.65-.23-17.34-.53-25.92-1.55-25.61-3-51.16-6.6-76.78-9.58-29.59-3.46-59.2-6.78-88.85-9.68-50.46-4.93-101-7-151.68-3.62-28.41,1.92-56.9,3.18-85.15,6.49-32.69,3.82-65.15,9.53-97.7,14.5-9.41,1.43-18.73,3.11-27.77-1.79C-.24,707.34-2.44,700.14,2.91,693a9.94,9.94,0,0,1,5.15-3.49C28.56,684.66,49,679,69.7,675.47,131.71,665,194.35,661.19,270.3,658.58Z"/><path class="cls-2" d="M76.25,359.83c1.07-10.55,1.19-21.31,3.42-31.61a155.44,155.44,0,0,1,22.2-52.47,208.23,208.23,0,0,1,48.31-51.55,212.23,212.23,0,0,1,61-32.48c12.71-4.33,26.16-6.93,39.49-8.84a190.62,190.62,0,0,1,36.28-1.73c13.32.66,26.63,2.74,39.77,5.18a233.34,233.34,0,0,1,33.46,8.61,225.6,225.6,0,0,1,48,22.92A196.17,196.17,0,0,1,458,263.1a177,177,0,0,1,27.21,49.54c5,14.05,8.56,28.47,8.94,43.44.3,11.46-1.62,22.66-4.26,33.88a171.34,171.34,0,0,1-13.67,38c-7.88,15.71-18.79,29-31.63,40.65-17.73,16.16-38.5,27.59-60.72,36.1a501.57,501.57,0,0,1-49.07,15.82c-16,4.3-32.44,7-48.64,10.61-15.85,3.52-31.47.37-47-1.86a196.53,196.53,0,0,1-35.67-8.47,230.28,230.28,0,0,1-36-15.92,173.39,173.39,0,0,1-45.33-36.42,191.33,191.33,0,0,1-35.38-55.88A142.32,142.32,0,0,1,76.25,359.83Z"/></g></g></svg>